<?xml version="1.0" encoding="UTF-8" standalone="no"?>
<!-- Created with Inkscape (http://www.inkscape.org/) -->

<svg
   version="1.1"
   id="svg1"
   width="500.16"
   height="500.16"
   viewBox="0 0 500.16 500.16"
   sodipodi:docname="logo entier alt2.svg"
   inkscape:version="1.4.2 (f4327f4, 2025-05-13)"
   xmlns:inkscape="http://www.inkscape.org/namespaces/inkscape"
   xmlns:sodipodi="http://sodipodi.sourceforge.net/DTD/sodipodi-0.dtd"
   xmlns="http://www.w3.org/2000/svg"
   xmlns:svg="http://www.w3.org/2000/svg">
  <defs
     id="defs1" />
  <sodipodi:namedview
     id="namedview1"
     pagecolor="#ffffff"
     bordercolor="#000000"
     borderopacity="0.25"
     inkscape:showpageshadow="2"
     inkscape:pageopacity="0.0"
     inkscape:pagecheckerboard="0"
     inkscape:deskcolor="#ffffff"
     inkscape:zoom="1.709453"
     inkscape:cx="233.11551"
     inkscape:cy="252.41993"
     inkscape:window-width="1920"
     inkscape:window-height="1057"
     inkscape:window-x="-8"
     inkscape:window-y="-8"
     inkscape:window-maximized="1"
     inkscape:current-layer="g1"
     showgrid="false" />
  <g
     inkscape:groupmode="layer"
     inkscape:label="Image"
     id="g1">
    <path
       style="fill:#ac9d93"
       d="m 385.76,144.78465 c -27.52855,-12.73173 -60.54236,-21.50787 -91.36,-24.28645 -14.63329,-1.31937 -35.58016,-1.47094 -48.8,-0.35312 -27.45408,2.32143 -72.03185,10.09323 -106.72,18.60585 -10.13066,2.4861 -15.13401,3.39311 -26.24,4.75678 -20.575057,2.52635 -38.561688,3.72802 -54.72,3.65579 l -7.84,-0.0351 4,-0.59921 c 2.2,-0.32956 10.48,-1.54674 18.400001,-2.70483 C 116.00494,137.46 169.30766,128.71083 214.72,120.47695 c 19.47193,-3.53053 28.642,-4.64377 43.59783,-5.29277 11.24725,-0.48807 26.7243,0.10763 38.64217,1.48731 26.60538,3.07999 52.80476,10.48647 77.76,21.98249 6.55728,3.02071 18.39556,9.1902 16.944,8.83032 -0.0792,-0.0196 -2.736,-1.23448 -5.904,-2.69965 z"
       id="path29" />
    <path
       style="fill:#ac9d93"
       d="m 466.56,166.02058 c -4.71472,-3.17477 -13.53648,-6.57192 -20.32,-7.82499 -4.70229,-0.86861 -14.75949,-0.79635 -19.2,0.13796 -8.82638,1.85712 -11.37921,2.35234 -16.66582,3.23294 -6.59513,1.09856 -11.49665,1.69888 -20.29418,2.48555 -7.83466,0.70057 -30.3274,0.80693 -37.44,0.17705 -15.14183,-1.34095 -24.69903,-2.80963 -37.92,-5.82726 -26.65232,-6.08329 -67.96534,-11.46844 -103.04,-13.43127 -16.69311,-0.93417 -50.27557,-1.38597 -61.55686,-0.82816 l -3.72314,0.18409 3.68,-1.11656 c 2.024,-0.61412 7.94614,-2.19502 13.1603,-3.51312 30.6956,-7.75964 65.465,-12.44127 95.1597,-12.81308 l 10.24,-0.12821 -7.14287,0.44473 c -26.4678,1.64796 -55.08839,5.88701 -78.45713,11.62043 l -4.96,1.21691 8.8,0.23087 c 28.19446,0.73965 47.61775,2.15753 73.28,5.34934 18.06554,2.24694 33.2435,4.76932 53.92,8.96079 22.6358,4.58866 34.51325,5.88008 54.08,5.88008 19.41382,0 35.42444,-1.77949 52,-5.77952 3.48877,-0.84192 4.07909,-0.88854 11.36,-0.89722 8.30387,-0.01 10.65854,0.30509 16.8875,2.25902 6.72885,2.11075 14.4586,6.22296 18.7925,9.99758 1.4111,1.22899 1.20313,1.22316 -0.64,-0.018 z"
       id="path28" />
    <path
       style="fill:#ac9d93"
       d="m 140.48,172.80865 c -15.36535,-1.6886 -43.464456,-3.06988 -69.759999,-3.42923 -18.308015,-0.2502 -18.643914,-0.33679 -4.640001,-1.19603 24.560868,-1.50699 50.85326,-1.42719 70.4,0.21367 2.64,0.22162 8.184,0.40141 12.32,0.39955 8.48656,-0.004 12.13221,-0.42883 19.68,-2.29426 6.57413,-1.62479 7.58759,-2.17422 8.63511,-4.6813 0.39196,-0.93808 0.41182,-1.22223 0.0922,-1.31958 -0.22403,-0.0682 -7.60732,-0.43324 -16.40732,-0.81113 -17.31159,-0.74338 -42.18288,-2.07146 -63.039999,-3.3662 -19.40139,-1.20438 -47.002555,-3.06003 -47.109757,-3.16723 -0.180883,-0.18088 20.298695,-0.51683 31.081941,-0.50987 12.416342,0.008 34.526845,0.46101 46.587815,0.95448 19.56399,0.80045 27.99606,1.27756 48.32,2.73407 1.32,0.0946 3.03255,0.24969 3.80566,0.34466 l 1.40567,0.17266 -0.19379,2.74603 c -0.3313,4.69453 -2.52967,7.8629 -6.48352,9.34429 -2.58424,0.96823 -8.95352,2.46428 -13.84529,3.25204 -4.51673,0.72737 -16.58157,1.08232 -20.84873,0.61338 z"
       id="path27" />
    <path
       style="fill:#ac9d93"
       d="m 202.43334,234.53987 c -6.76079,-0.78439 -15.44299,-3.34618 -21.58468,-6.36883 -2.6235,-1.29116 -10.48231,-6.25593 -24.83626,-15.69019 -11.54909,-7.59074 -22.03833,-14.36231 -23.30942,-15.04793 -5.89464,-3.17953 -12.94041,-5.21888 -19.79519,-5.72958 -2.34728,-0.17488 -14.275789,-0.4678 -26.507789,-0.65094 C 74.168001,190.86927 61.748,190.63107 58.8,190.52307 l -5.36,-0.19637 v 0.9489 c 0,2.51292 2.089813,5.58589 7.890132,11.60207 4.27889,4.43814 8.366834,7.83553 13.841313,11.5032 5.064893,3.39326 7.18263,5.96153 8.303845,10.07042 l 0.341447,1.2513 -9.348368,-0.21071 C 69.326766,225.376 62.528,225.27117 59.36,225.25893 c -3.442547,-0.0133 -5.502505,-0.13088 -5.12,-0.29225 0.352,-0.1485 5.951372,-0.49413 12.443048,-0.76806 6.491676,-0.27392 11.872908,-0.56791 11.958294,-0.65329 0.08539,-0.0854 -0.372078,-0.87361 -1.016585,-1.7516 -0.813125,-1.1077 -2.338185,-2.38687 -4.982097,-4.17883 -5.361207,-3.63365 -8.213292,-5.95819 -12.753486,-10.39448 -7.205907,-7.04101 -10.169765,-11.31426 -10.51905,-15.16623 -0.185262,-2.04311 0.403167,-5.46065 0.976793,-5.67313 0.205196,-0.076 14.701083,0.14856 32.213084,0.49904 32.578559,0.65201 34.574659,0.75697 39.712409,2.0883 3.51987,0.91209 8.9311,2.98406 11.9197,4.56408 1.61034,0.85136 12.28789,7.71549 23.72789,15.25362 11.44,7.53814 21.664,14.17964 22.72,14.75889 4.66545,2.55917 12.866,5.36056 18.72,6.39495 2.53066,0.44716 11.55352,1.17321 11.77891,0.94782 0.0554,-0.0554 -0.54883,-1.30376 -1.34264,-2.77421 -9.79499,-18.1441 -7.1557,-39.96953 6.71278,-55.51097 7.26739,-8.14406 19.58714,-12.74899 30.37095,-11.3522 7.99224,1.0352 14.24505,3.97514 19.8029,9.3109 6.0247,5.78395 9.94118,13.15461 11.538,21.71407 0.6324,3.38989 0.64648,9.99571 0.0288,13.5375 -0.44897,2.57457 -1.71244,7.17177 -1.90683,6.93808 -0.0507,-0.061 0.0123,-1.55093 0.14004,-3.31093 0.42497,-5.85412 -0.3494,-12.99324 -2.04303,-18.83515 -3.11364,-10.74004 -10.6144,-18.80668 -21.18861,-22.78717 -6.50717,-2.44952 -17.31849,-2.30037 -22.65921,0.3126 -0.9017,0.44116 -3.17169,2.02964 -5.04441,3.52996 -8.91823,7.14472 -14.22666,15.78784 -16.61957,27.05976 -0.91899,4.32897 -0.99782,12.09326 -0.16732,16.48 1.17291,6.19533 3.63436,12.41957 6.78664,17.16127 0.77691,1.16864 1.41256,2.21344 1.41256,2.32177 0,0.28053 -11.88428,0.1634 -14.52666,-0.14317 z"
       id="path26" />
    <path
       style="fill:#ac9d93"
       d="m 207.60658,302.61911 c -0.39114,0 -0.50286,-0.71364 -0.50286,-0.97126 0,-0.25762 -0.23238,-0.82307 -0.51641,-1.25654 -0.36499,-0.55705 -0.44857,-1.09326 -0.28504,-1.82874 0.12725,-0.57234 0.27339,-2.14694 0.32475,-3.49914 0.0753,-1.98192 0.26917,-2.78151 1.00018,-4.12461 1.93062,-3.54718 9.86909,-11.90612 15.31252,-16.12355 1.0538,-0.81646 2.02974,-1.68772 2.16877,-1.93614 0.514,-0.91847 -3.13135,-2.0916 -8.40477,-2.70479 -1.672,-0.19442 -5.2,-0.70267 -7.84,-1.12945 -2.64,-0.42677 -5.808,-0.87288 -7.04,-0.99134 -2.60426,-0.25042 -7.19177,-1.5967 -7.32972,-2.15104 -0.0521,-0.2093 -0.32946,-1.07574 -0.61639,-1.92543 -0.45348,-1.34289 -0.464,-1.68295 -0.0804,-2.60093 0.24269,-0.58083 0.59994,-1.15414 0.7939,-1.27401 0.19396,-0.11987 0.35265,-0.92008 0.35265,-1.77823 0,-0.85816 0.14832,-1.95039 0.32959,-2.42718 0.91556,-2.40808 4.77975,-5.72905 8.47041,-7.27964 1.232,-0.51761 2.64705,-1.28176 3.14455,-1.69812 0.49751,-0.41635 1.15641,-0.75701 1.46422,-0.75701 0.30782,0 0.89787,-0.36 1.31123,-0.8 0.41336,-0.44 0.9286,-0.8 1.14498,-0.8 0.73169,0 8.2668,-4.03324 12.93502,-6.92359 2.552,-1.58008 7.664,-4.58295 11.36,-6.67303 6.78873,-3.83902 10.06295,-5.94658 11.21175,-7.21681 0.6693,-0.74006 2.66768,-1.85657 3.98825,-2.22827 0.53345,-0.15015 1.22649,-0.0131 2.08,0.41125 1.53611,0.76376 1.74872,1.0486 1.7551,2.35127 0.003,0.55045 0.20909,1.17028 0.45866,1.3774 0.38523,0.31972 0.32122,0.62763 -0.42394,2.03918 -0.48273,0.91443 -1.08292,1.99034 -1.33376,2.39091 -0.94254,1.50518 -7.23252,5.32635 -18.63682,11.32189 -3.72858,1.96021 -9.37124,5.0373 -12.53924,6.83796 -5.17175,2.93959 -9.33202,5.27535 -16.4,9.20767 -1.276,0.70992 -2.32,1.466 -2.32,1.68018 0,0.4702 1.51351,0.63741 11.36,1.25501 8.07255,0.50633 13.41904,1.15048 18.08,2.17829 5.05772,1.11529 4.38428,1.37251 11.2,-4.27791 2.50368,-2.07562 7.4152,-5.92833 9.57514,-7.51097 0.4951,-0.36277 3.19388,-2.73877 5.9973,-5.28 2.80342,-2.54124 6.72013,-6.05317 8.7038,-7.8043 1.98366,-1.75112 5.01454,-4.92565 6.73528,-6.73853 2.03244,-2.14126 3.36399,-3.0376 3.8004,-3.0376 0.70474,0 1.66808,1.09161 1.66808,1.89017 0,0.25727 0.31515,1.11878 0.70033,1.91445 0.68911,1.42351 0.6922,1.49445 0.19302,4.42866 -0.44951,2.64232 -0.66153,3.18191 -1.8614,4.73716 -1.61436,2.09251 -8.74337,8.78385 -12.84337,12.05489 -1.60949,1.28407 -3.88499,3.19867 -5.05669,4.25467 -1.17169,1.056 -2.98569,2.52911 -4.03112,3.27357 -2.61386,1.86136 -5.38103,4.57417 -5.02699,4.92821 0.15785,0.15786 1.14183,0.44996 2.18661,0.64913 3.32533,0.63392 4.25835,0.91355 4.77626,1.43145 0.37248,0.37249 0.41408,0.61553 0.15813,0.92393 -0.26028,0.31363 -0.16776,0.58575 0.3693,1.0861 0.39413,0.36719 0.83345,0.66761 0.97626,0.66761 0.14281,0 0.25966,0.162 0.25966,0.36 0,0.23034 -0.35016,0.28997 -0.97218,0.16557 -0.68166,-0.13634 -1.02408,-0.0592 -1.14588,0.25822 -0.27485,0.71627 1.21166,3.6179 2.04889,3.99937 0.52565,0.2395 0.72213,0.55941 0.65102,1.05994 -0.097,0.68296 -0.23157,0.71475 -2.84148,0.67152 -1.80332,-0.0299 -3.77188,-0.32342 -5.76,-0.85889 -3.74521,-1.00872 -9.92547,-2.13808 -11.64903,-2.1287 -1.80654,0.01 -3.54155,0.885 -6.11633,3.08517 -1.21825,1.04101 -3.65501,3.05603 -5.41501,4.47782 -1.76,1.42179 -3.488,2.90894 -3.84,3.30477 -0.352,0.39584 -1.288,1.15972 -2.08,1.69751 -3.07628,2.08889 -7.62765,6.96398 -10.09897,10.81729 -1.30957,2.04188 -2.38103,3.85911 -2.38103,4.0383 0,0.17919 -0.29845,0.70522 -0.66322,1.16896 -0.76297,0.96995 -1.87234,0.3403 -2.99392,0.3403 z m 64.16706,-68.85803 c 7.87682,-8.61212 23.42017,-19.18737 33.33489,-23.71852 l 1.90852,-0.87222 18.09148,-0.003 c 16.80368,-0.003 21.34738,0.13694 35.37147,1.08868 14.48677,0.98314 33.62528,3.0879 43.2,4.75092 2.49655,0.43363 1.3943,0.39788 -8.42996,-0.27337 -22.00059,-1.5032 -41.0723,-2.0375 -66.71726,-1.86913 l -20.85278,0.13691 -3.58405,1.97829 c -6.25472,3.45241 -8.97483,5.1488 -13.37595,8.34192 -3.23346,2.34595 -9.12,7.06521 -9.12,7.31153 0,0.0884 0.756,0.0718 1.68,-0.037 2.401,-0.28273 19.67197,-1.69892 27.6,-2.26316 7.37197,-0.52467 20.11624,-1.19982 34.72,-1.83936 13.06171,-0.572 64.66793,-0.5567 79.45637,0.0236 6.125,0.24033 11.1867,0.38433 11.24822,0.32 0.0615,-0.0643 -0.80154,-1.32896 -1.91789,-2.81029 -2.27944,-3.02463 -4.85135,-7.94668 -6.03348,-11.54668 -1.5834,-4.82197 -1.95442,-7.42767 -1.93647,-13.6 0.0191,-6.56778 0.53304,-9.38638 2.72779,-14.96009 3.93929,-10.00409 10.06821,-16.112 18.51666,-18.45319 11.83804,-3.28049 24.04442,2.31766 29.59562,13.57328 2.85918,5.79726 4.02318,11.14158 4.02318,18.47165 0,8.84691 -2.22245,16.20034 -7.09763,23.48392 -1.99033,2.97358 -4.5645,5.97274 -6.55309,7.635 l -1.40339,1.17308 2.10376,-3.21081 c 8.17385,-12.47519 10.48352,-27.76494 6.37297,-42.18829 -1.25882,-4.41701 -2.51088,-6.61947 -5.419,-9.53243 C 465.09813,170.67967 460.22697,168.64 454.4,168.64 c -8.7921,0 -15.58592,4.69546 -20.12683,13.91039 -2.77439,5.63012 -3.87202,10.35981 -3.87273,16.68769 -7.3e-4,6.47434 1.36594,12.09502 4.26684,17.54814 2.41778,4.54496 4.63115,7.30399 8.68242,10.82291 l 2.2297,1.9367 -4.12184,-0.2089 c -18.17439,-0.92113 -61.03017,-1.04578 -81.61756,-0.2374 -25.78303,1.01239 -46.15075,2.33189 -67.2,4.3535 -9.77528,0.93884 -19.95005,1.9852 -21.76,2.23779 l -1.17659,0.33375 z"
       id="path25" />
    <path
       style="fill:#483e37"
       d="m 125.4439,308.08196 c -0.38258,-0.44 -0.84963,-0.80455 -1.03789,-0.81011 -0.30358,-0.009 -0.13099,-1.03286 -1.36385,-3.18536 -0.61362,-1.07134 -1.52716,-3.20312 -0.63301,-3.20943 0.38201,-0.003 0.87584,-0.11998 1.09739,-0.26063 0.22156,-0.14065 1.49689,-2.40644 2.83407,-5.0351 3.06803,-6.03117 7.30679,-13.37893 12.91017,-22.37937 2.41059,-3.872 5.15406,-8.408 6.0966,-10.08 0.94254,-1.672 2.67021,-4.48 3.83925,-6.24 1.16905,-1.76 3.11883,-4.856 4.33285,-6.88 1.21403,-2.024 2.68006,-4.30424 3.25785,-5.06721 1.72117,-2.27281 0.95726,-2.50738 -3.23067,-0.99201 -1.49079,0.53943 -4.34232,1.91913 -6.33673,3.06599 -1.99442,1.14687 -4.85881,2.78724 -6.36532,3.64528 -1.50651,0.85804 -3.41294,2.1532 -4.23652,2.87814 -1.74174,1.53315 -2.47216,1.54019 -2.86412,0.0276 -0.15409,-0.59468 -0.50306,-1.42141 -0.77549,-1.83718 -1.25287,-1.91212 0.6401,-3.55564 9.15958,-7.95252 8.75988,-4.52096 17.04787,-7.40579 26.25566,-9.1389 2.18395,-0.41106 7.22876,-0.33889 9.92,0.14192 4.31282,0.77052 9.22043,3.52901 12.2262,6.87216 1.52963,1.70132 3.77741,5.66419 3.76826,6.64353 -0.0127,1.35988 -2.84155,9.39006 -3.79722,10.77908 -1.37741,2.00199 -7.25683,6.13056 -14.47177,10.16217 -6.16616,3.44557 -14.18337,7.09377 -16.84219,7.66399 -2.49891,0.53592 -2.55962,0.72232 -1.53597,4.71631 1.46772,5.72668 3.62261,11.99683 4.70142,13.67988 0.56116,0.87547 1.41102,2.50819 1.88857,3.62825 0.65266,1.53078 1.25496,2.34507 2.42548,3.27914 3.08391,2.46096 4.34377,3.16438 5.66753,3.16438 1.15772,0 1.47893,-0.21711 3.78745,-2.56 1.38734,-1.408 2.5899,-2.56 2.67234,-2.56 0.0824,0 0.1499,0.84458 0.1499,1.87685 0,2.19924 -0.58152,3.13428 -2.84005,4.56661 -1.18496,0.75147 -1.79799,0.91654 -3.40383,0.91654 -2.81034,0 -5.33767,-0.53832 -8.53466,-1.8179 -3.21188,-1.28553 -5.04424,-2.7464 -7.15507,-5.70447 -2.89447,-4.05623 -7.56972,-15.4806 -8.96946,-21.91763 -1.17402,-5.39901 -1.89287,-5.74558 -3.84627,-1.85436 -0.64452,1.2839 -2.28779,4.06236 -3.65172,6.17436 -3.62538,5.61381 -8.27591,13.95135 -9.2738,16.62623 -0.47749,1.27992 -1.10598,2.66666 -1.39665,3.08165 -0.29067,0.41499 -0.52849,1.24578 -0.52849,1.8462 0,1.69358 -0.67539,3.54731 -1.54032,4.22766 -1.03897,0.81726 -1.52333,0.77995 -2.3595,-0.18174 z m 34.15905,-39.31259 c -7.3357,3.66785 15.78399,-6.98715 22.67483,-12.36741 2.62573,-2.05013 3.22109,-2.69457 4.084,-4.42069 0.80429,-1.60886 1.0402,-2.53934 1.15748,-4.56537 0.24989,-4.31662 -1.11092,-6.53045 -4.88131,-7.94113 -1.43986,-0.53872 -2.5133,-0.67165 -5.38623,-0.66698 -3.25822,0.005 -10.60046,0.92273 -11.41542,1.4264 -0.39701,0.24536 -0.44704,1.12777 -0.0639,1.12777 0.42909,0 1.01136,1.53726 1.01136,2.67012 0,0.80048 -0.30373,1.33132 -1.31882,2.30494 -2.93307,2.81324 -15.64118,21.08653 -15.64118,22.49082 0,0.20257 0.3816,0.1971 1.07393,-0.0154 0.87143,-0.26745 1.39939,-0.20461 2.8,0.33328 0.94934,0.36458 1.94978,0.67038 2.2232,0.67955 0.27342,0.009 5.33537,-1.88256 3.6821,-1.05592 z"
       id="path24"
       sodipodi:nodetypes="ssscsssssssssssssssssssssssssssssssssssssssssssssscssssssscss" />
    <path
       style="fill:#483e37"
       d="m 274.28413,310.70625 c -1.74545,-0.49589 -2.84555,-1.25439 -4.81359,-3.31889 -3.75027,-3.93412 -4.53169,-5.70808 -5.2616,-11.94476 -0.53749,-4.59266 -0.25661,-6.90653 1.45788,-12.00986 1.15707,-3.44412 3.35718,-8.00773 6.16642,-12.79078 1.23175,-2.09718 6.65988,-9.60752 10.06076,-13.92 6.31288,-8.00505 15.6738,-16.37482 22.03594,-19.70274 2.35647,-1.23262 3.01679,-1.44619 3.96085,-1.28104 0.62311,0.10901 2.35693,0.34598 3.85293,0.52662 3.55333,0.42904 4.07413,0.65854 5.97859,2.63445 2.34569,2.43369 3.60025,6.24128 2.98138,9.04847 -0.59815,2.71319 -4.59574,10.07312 -7.63364,14.05424 -3.99066,5.2297 -11.67804,12 -13.62548,12 -0.85343,0 -3.55142,-1.36852 -4.58085,-2.32357 -0.9946,-0.92275 -0.90253,-1.43157 0.35402,-1.95659 1.36132,-0.5688 8.78747,-7.75599 11.00355,-10.64947 7.58452,-9.90294 10.25893,-14.87241 9.32534,-17.32793 -0.26261,-0.6907 -0.44475,-0.765 -1.52141,-0.62059 -1.70829,0.22913 -6.17887,2.10342 -8.82129,3.69833 -1.22089,0.7369 -2.40429,1.33982 -2.62978,1.33982 -0.2255,0 -0.5971,0.35713 -0.8258,0.79361 -0.2287,0.43649 -1.01341,1.19249 -1.74379,1.68 -1.58843,1.06024 -7.49523,6.34307 -7.9208,7.08409 -0.16498,0.28727 -0.64838,0.79687 -1.07424,1.13246 -0.42585,0.33558 -0.89613,0.76758 -1.04508,0.96 -0.14894,0.19241 -0.96154,1.14464 -1.80576,2.11605 -2.4833,2.85742 -8.12302,10.59658 -10.83892,14.87379 -0.67053,1.056 -2.43191,4.296 -3.91418,7.2 -2.27032,4.44792 -2.86876,5.9608 -3.79743,9.6 -0.88795,3.47965 -1.08116,4.78687 -0.99324,6.72 0.14261,3.13567 0.65291,4.12205 2.64881,5.12 1.46261,0.73131 1.95721,0.79958 5.76,0.79506 3.07779,-0.004 4.65948,-0.15531 6.08,-0.58296 11.01027,-3.31467 22.75358,-9.54007 27.76279,-14.71769 2.08942,-2.15966 2.92918,-2.61684 2.15721,-1.17441 -0.64162,1.19888 -0.0389,1.12783 1.26936,-0.1496 0.69168,-0.67542 1.75046,-2.21862 2.35284,-3.42934 1.94282,-3.90488 9.31448,-11.09175 14.65557,-14.28818 2.52945,-1.51377 6.38936,-0.3756 7.14595,2.10712 0.12878,0.42261 0.47485,0.72 0.83785,0.72 0.34014,0 0.61843,0.144 0.61843,0.32 0,0.176 0.19921,0.32 0.44268,0.32 0.24347,0 0.51799,0.288 0.61004,0.64 0.1006,0.38471 0.43649,0.64 0.84203,0.64 0.78245,0 1.84259,1.54663 2.14043,3.12264 0.16437,0.86979 -0.37201,2.30208 -3.23563,8.64 -4.16867,9.22635 -5.41818,12.37452 -5.16909,13.02366 0.24294,0.63308 1.45763,0.62933 3.05405,-0.009 1.11781,-0.44726 1.44689,-0.86346 2.96332,-3.74785 0.93823,-1.78459 2.85929,-5.00726 4.26902,-7.16148 1.40974,-2.15423 3.64262,-5.7597 4.96198,-8.01216 1.31935,-2.25246 3.03716,-5.03138 3.81734,-6.17538 0.78018,-1.144 2.04321,-3.33358 2.80673,-4.86574 1.55475,-3.11994 2.25143,-3.77426 4.01858,-3.77426 3.48884,0 5.45047,2.91522 3.84453,5.71341 -0.89986,1.56791 -0.24297,1.51903 2.06589,-0.15373 3.49306,-2.5307 5.41659,-3.66875 7.01297,-4.14919 2.003,-0.60282 2.57996,-0.56896 3.22938,0.18951 0.30139,0.352 0.73198,0.64 0.95687,0.64 0.7137,0 1.68889,1.24741 1.68863,2.16 -1.4e-4,0.484 -0.42602,1.78 -0.94641,2.88 -0.52039,1.1 -0.89956,2 -0.84259,2 0.16754,0 6.26083,-2.81162 8.34925,-3.8526 1.056,-0.52636 2.424,-1.04714 3.04,-1.15728 0.616,-0.11014 1.39312,-0.34035 1.72693,-0.51156 0.45582,-0.2338 0.67887,-0.18274 0.8959,0.20507 0.15894,0.28401 0.54417,0.51637 0.85607,0.51637 1.27137,0 3.58749,1.05827 4.20061,1.91931 0.86452,1.21411 0.82985,2.95034 -0.0795,3.98126 -0.59961,0.67978 -1.38882,0.94835 -4.72,1.60622 -2.2,0.43448 -5.02026,1.13854 -6.26726,1.56458 -2.78136,0.95028 -9.73274,4.95413 -9.73274,5.60586 0,0.13605 1.22714,1.08091 2.72697,2.09971 3.24394,2.20352 4.48372,3.6474 6.03464,7.02813 1.37907,3.0061 1.4183,3.7077 0.32952,5.89261 -0.98212,1.97086 -2.57185,3.3696 -4.77113,4.19795 -0.88,0.33144 -2.32,0.96416 -3.2,1.40604 -1.83052,0.91918 -7.60585,2.04077 -7.78232,1.51136 -0.0611,-0.18316 -0.51159,-0.33303 -1.00119,-0.33303 -1.79081,0 -3.81797,-2.36228 -4.22799,-4.92693 -0.2062,-1.28976 -0.12709,-2.03669 0.37632,-3.55307 0.68661,-2.06822 2.50215,-5.31565 3.07939,-5.50807 0.4501,-0.15003 0.33813,3.54905 -0.14389,4.75373 -0.70428,1.76018 0.45057,2.83434 3.04725,2.83434 2.60479,0 9.69243,-4.43784 9.69243,-6.0688 0,-0.14105 -1.404,-0.80078 -3.12,-1.46606 -1.716,-0.66528 -3.36596,-1.4381 -3.66659,-1.71737 -0.63696,-0.59173 -2.81341,-5.84193 -2.81341,-6.78675 0,-0.3537 0.14349,-0.91119 0.31886,-1.23887 0.42041,-0.78555 0.0825,-1.60215 -0.66305,-1.60215 -0.39007,0 -0.534,-0.16085 -0.41693,-0.46593 0.14758,-0.38458 -0.004,-0.41347 -0.86884,-0.16547 -0.57621,0.16525 -1.09377,0.25434 -1.15014,0.19796 -0.0564,-0.0564 0.59177,-1.0979 1.44032,-2.31452 1.70785,-2.44865 3.11684,-5.18165 2.82292,-5.47557 -0.21856,-0.21855 -2.07523,0.95795 -4.84314,3.06892 -2.88765,2.2023 -9.8914,9.14193 -11.73156,11.62416 -0.89249,1.20391 -1.95154,2.36477 -2.35343,2.57969 -0.78296,0.4187 -3.79835,4.69409 -3.51239,4.98005 0.18726,0.18726 2.44818,-0.90887 3.59738,-1.74408 1.23809,-0.8998 0.82067,0.10102 -0.92124,2.20881 -1.61695,1.95659 -3.49282,3.73281 -6.39769,6.05781 -1.13256,0.90649 -1.56203,1.51372 -1.83373,2.59275 -0.19514,0.77497 -0.6427,1.75247 -0.99457,2.17223 -0.54719,0.65275 -0.68762,0.69373 -0.97043,0.28319 -0.18186,-0.264 -0.27027,-0.732 -0.19646,-1.04 0.15748,-0.65714 -0.14562,-0.72251 -0.74188,-0.16 -0.3392,0.32 -0.45333,0.32 -0.57066,0 -0.1949,-0.53154 -0.99666,-0.50451 -2.68299,0.0905 -1.37149,0.48389 -1.41809,0.47638 -3.47685,-0.56 -1.78136,-0.89675 -2.30345,-1.37218 -3.56779,-3.24891 -1.75697,-2.60798 -2.41955,-4.97966 -1.9069,-6.82574 0.40654,-1.46399 0.43811,-2.42795 0.0748,-2.28248 -0.14653,0.0587 -1.31508,1.33066 -2.59676,2.82666 -3.44763,4.02412 -5.23127,5.85915 -7.78225,8.00644 -2.54232,2.14 -4.03487,2.75091 -5.88369,2.40823 -1.73976,-0.32246 -4.08522,-2.89227 -4.7608,-5.21619 -0.27528,-0.94692 -0.60497,-1.67595 -0.73266,-1.62007 -0.12768,0.0559 -0.87683,0.57521 -1.66478,1.15408 -7.08668,5.20627 -11.36583,7.48805 -17.27263,9.21029 -3.60796,1.05198 -4.45476,1.17853 -8.64,1.29123 -3.18415,0.0857 -5.09796,-0.005 -6.09959,-0.28972 z m 43.33332,-12.40271 c 1.96145,-1.77013 3.80522,-3.58752 4.09728,-4.03865 0.82062,-1.2676 2.48099,-2.66293 3.16874,-2.66293 0.34114,0 0.62309,-0.18 0.62656,-0.4 0.006,-0.40957 0.6819,-1.24372 6.98524,-8.62653 3.43853,-4.0274 5.22071,-6.70787 4.76373,-7.16486 -0.55234,-0.55233 -2.7167,0.42137 -5.72861,2.57717 -3.98395,2.85156 -9.26806,8.3535 -13.61106,14.17217 -2.66098,3.56513 -5.21561,7.97123 -5.21561,8.99563 0,1.0562 1.63407,0.10776 4.91373,-2.852 z"
       id="path1" />
  </g>
</svg>
