<?xml version="1.0" encoding="UTF-8" standalone="no"?>
<!-- Created with Inkscape (http://www.inkscape.org/) -->

<svg
   version="1.1"
   id="svg1"
   width="500.16"
   height="500.16"
   viewBox="0 0 500.16 500.16"
   sodipodi:docname="logo voiture alt.svg"
   inkscape:version="1.4.2 (f4327f4, 2025-05-13)"
   xmlns:inkscape="http://www.inkscape.org/namespaces/inkscape"
   xmlns:sodipodi="http://sodipodi.sourceforge.net/DTD/sodipodi-0.dtd"
   xmlns="http://www.w3.org/2000/svg"
   xmlns:svg="http://www.w3.org/2000/svg">
  <defs
     id="defs1" />
  <sodipodi:namedview
     id="namedview1"
     pagecolor="#000000"
     bordercolor="#000000"
     borderopacity="0.25"
     inkscape:showpageshadow="2"
     inkscape:pageopacity="0.0"
     inkscape:pagecheckerboard="0"
     inkscape:deskcolor="#ffffff"
     inkscape:zoom="1.2087658"
     inkscape:cx="405.37215"
     inkscape:cy="170.00812"
     inkscape:window-width="1920"
     inkscape:window-height="1057"
     inkscape:window-x="-8"
     inkscape:window-y="-8"
     inkscape:window-maximized="1"
     inkscape:current-layer="g1" />
  <g
     inkscape:groupmode="layer"
     inkscape:label="Image"
     id="g1">
    <path
       style="fill:#c8beb7"
       d="m 385.76,144.78465 c -27.52855,-12.73173 -60.54236,-21.50787 -91.36,-24.28645 -14.63329,-1.31937 -35.58016,-1.47094 -48.8,-0.35312 -27.45408,2.32143 -72.03185,10.09323 -106.72,18.60585 -10.13066,2.4861 -15.13401,3.39311 -26.24,4.75678 -20.575057,2.52635 -38.561688,3.72802 -54.72,3.65579 l -7.84,-0.0351 4,-0.59921 c 2.2,-0.32956 10.48,-1.54674 18.400001,-2.70483 C 116.00494,137.46 169.30766,128.71083 214.72,120.47695 c 19.47193,-3.53053 28.642,-4.64377 43.59783,-5.29277 11.24725,-0.48807 26.7243,0.10763 38.64217,1.48731 26.60538,3.07999 52.80476,10.48647 77.76,21.98249 6.55728,3.02071 18.39556,9.1902 16.944,8.83032 -0.0792,-0.0196 -2.736,-1.23448 -5.904,-2.69965 z"
       id="path29" />
    <path
       style="fill:#c8beb7"
       d="m 466.56,166.02058 c -4.71472,-3.17477 -13.53648,-6.57192 -20.32,-7.82499 -4.70229,-0.86861 -14.75949,-0.79635 -19.2,0.13796 -8.82638,1.85712 -11.37921,2.35234 -16.66582,3.23294 -6.59513,1.09856 -11.49665,1.69888 -20.29418,2.48555 -7.83466,0.70057 -30.3274,0.80693 -37.44,0.17705 -15.14183,-1.34095 -24.69903,-2.80963 -37.92,-5.82726 -26.65232,-6.08329 -67.96534,-11.46844 -103.04,-13.43127 -16.69311,-0.93417 -50.27557,-1.38597 -61.55686,-0.82816 l -3.72314,0.18409 3.68,-1.11656 c 2.024,-0.61412 7.94614,-2.19502 13.1603,-3.51312 30.6956,-7.75964 65.465,-12.44127 95.1597,-12.81308 l 10.24,-0.12821 -7.14287,0.44473 c -26.4678,1.64796 -55.08839,5.88701 -78.45713,11.62043 l -4.96,1.21691 8.8,0.23087 c 28.19446,0.73965 47.61775,2.15753 73.28,5.34934 18.06554,2.24694 33.2435,4.76932 53.92,8.96079 22.6358,4.58866 34.51325,5.88008 54.08,5.88008 19.41382,0 35.42444,-1.77949 52,-5.77952 3.48877,-0.84192 4.07909,-0.88854 11.36,-0.89722 8.30387,-0.01 10.65854,0.30509 16.8875,2.25902 6.72885,2.11075 14.4586,6.22296 18.7925,9.99758 1.4111,1.22899 1.20313,1.22316 -0.64,-0.018 z"
       id="path28" />
    <path
       style="fill:#c8beb7"
       d="m 140.48,172.80865 c -15.36535,-1.6886 -43.464456,-3.06988 -69.759999,-3.42923 -18.308015,-0.2502 -18.643914,-0.33679 -4.640001,-1.19603 24.560868,-1.50699 50.85326,-1.42719 70.4,0.21367 2.64,0.22162 8.184,0.40141 12.32,0.39955 8.48656,-0.004 12.13221,-0.42883 19.68,-2.29426 6.57413,-1.62479 7.58759,-2.17422 8.63511,-4.6813 0.39196,-0.93808 0.41182,-1.22223 0.0922,-1.31958 -0.22403,-0.0682 -7.60732,-0.43324 -16.40732,-0.81113 -17.31159,-0.74338 -42.18288,-2.07146 -63.039999,-3.3662 -19.40139,-1.20438 -47.002555,-3.06003 -47.109757,-3.16723 -0.180883,-0.18088 20.298695,-0.51683 31.081941,-0.50987 12.416342,0.008 34.526845,0.46101 46.587815,0.95448 19.56399,0.80045 27.99606,1.27756 48.32,2.73407 1.32,0.0946 3.03255,0.24969 3.80566,0.34466 l 1.40567,0.17266 -0.19379,2.74603 c -0.3313,4.69453 -2.52967,7.8629 -6.48352,9.34429 -2.58424,0.96823 -8.95352,2.46428 -13.84529,3.25204 -4.51673,0.72737 -16.58157,1.08232 -20.84873,0.61338 z"
       id="path27" />
    <path
       style="fill:#c8beb7"
       d="m 202.43334,234.53987 c -6.76079,-0.78439 -15.44299,-3.34618 -21.58468,-6.36883 -2.6235,-1.29116 -10.48231,-6.25593 -24.83626,-15.69019 -11.54909,-7.59074 -22.03833,-14.36231 -23.30942,-15.04793 -5.89464,-3.17953 -12.94041,-5.21888 -19.79519,-5.72958 -2.34728,-0.17488 -14.275789,-0.4678 -26.507789,-0.65094 C 74.168001,190.86927 61.748,190.63107 58.8,190.52307 l -5.36,-0.19637 v 0.9489 c 0,2.51292 2.089813,5.58589 7.890132,11.60207 4.27889,4.43814 8.366834,7.83553 13.841313,11.5032 5.064893,3.39326 7.18263,5.96153 8.303845,10.07042 l 0.341447,1.2513 -9.348368,-0.21071 C 69.326766,225.376 62.528,225.27117 59.36,225.25893 c -3.442547,-0.0133 -5.502505,-0.13088 -5.12,-0.29225 0.352,-0.1485 5.951372,-0.49413 12.443048,-0.76806 6.491676,-0.27392 11.872908,-0.56791 11.958294,-0.65329 0.08539,-0.0854 -0.372078,-0.87361 -1.016585,-1.7516 -0.813125,-1.1077 -2.338185,-2.38687 -4.982097,-4.17883 -5.361207,-3.63365 -8.213292,-5.95819 -12.753486,-10.39448 -7.205907,-7.04101 -10.169765,-11.31426 -10.51905,-15.16623 -0.185262,-2.04311 0.403167,-5.46065 0.976793,-5.67313 0.205196,-0.076 14.701083,0.14856 32.213084,0.49904 32.578559,0.65201 34.574659,0.75697 39.712409,2.0883 3.51987,0.91209 8.9311,2.98406 11.9197,4.56408 1.61034,0.85136 12.28789,7.71549 23.72789,15.25362 11.44,7.53814 21.664,14.17964 22.72,14.75889 4.66545,2.55917 12.866,5.36056 18.72,6.39495 2.53066,0.44716 11.55352,1.17321 11.77891,0.94782 0.0554,-0.0554 -0.54883,-1.30376 -1.34264,-2.77421 -9.79499,-18.1441 -7.1557,-39.96953 6.71278,-55.51097 7.26739,-8.14406 19.58714,-12.74899 30.37095,-11.3522 7.99224,1.0352 14.24505,3.97514 19.8029,9.3109 6.0247,5.78395 9.94118,13.15461 11.538,21.71407 0.6324,3.38989 0.64648,9.99571 0.0288,13.5375 -0.44897,2.57457 -1.71244,7.17177 -1.90683,6.93808 -0.0507,-0.061 0.0123,-1.55093 0.14004,-3.31093 0.42497,-5.85412 -0.3494,-12.99324 -2.04303,-18.83515 -3.11364,-10.74004 -10.6144,-18.80668 -21.18861,-22.78717 -6.50717,-2.44952 -17.31849,-2.30037 -22.65921,0.3126 -0.9017,0.44116 -3.17169,2.02964 -5.04441,3.52996 -8.91823,7.14472 -14.22666,15.78784 -16.61957,27.05976 -0.91899,4.32897 -0.99782,12.09326 -0.16732,16.48 1.17291,6.19533 3.63436,12.41957 6.78664,17.16127 0.77691,1.16864 1.41256,2.21344 1.41256,2.32177 0,0.28053 -11.88428,0.1634 -14.52666,-0.14317 z"
       id="path26" />
    <path
       style="fill:#c8beb7"
       d="M 267.86,237.69809 C 0,0 0,0 267.86,237.69809 Z m 3.91364,-3.93701 c 7.87682,-8.61212 23.42017,-19.18737 33.33489,-23.71852 l 1.90852,-0.87222 18.09148,-0.003 c 16.80368,-0.003 21.34738,0.13694 35.37147,1.08868 14.48677,0.98314 33.62528,3.0879 43.2,4.75092 2.49655,0.43363 1.3943,0.39788 -8.42996,-0.27337 -22.00059,-1.5032 -41.0723,-2.0375 -66.71726,-1.86913 l -20.85278,0.13691 -3.58405,1.97829 c -6.25472,3.45241 -8.97483,5.1488 -13.37595,8.34192 -3.23346,2.34595 -9.12,7.06521 -9.12,7.31153 0,0.0884 0.756,0.0718 1.68,-0.037 2.401,-0.28273 19.67197,-1.69892 27.6,-2.26316 7.37197,-0.52467 20.11624,-1.19982 34.72,-1.83936 13.06171,-0.572 64.66793,-0.5567 79.45637,0.0236 6.125,0.24033 11.1867,0.38433 11.24822,0.32 0.0615,-0.0643 -0.80154,-1.32896 -1.91789,-2.81029 -2.27944,-3.02463 -4.85135,-7.94668 -6.03348,-11.54668 -1.5834,-4.82197 -1.95442,-7.42767 -1.93647,-13.6 0.0191,-6.56778 0.53304,-9.38638 2.72779,-14.96009 3.93929,-10.00409 10.06821,-16.112 18.51666,-18.45319 11.83804,-3.28049 24.04442,2.31766 29.59562,13.57328 2.85918,5.79726 4.02318,11.14158 4.02318,18.47165 0,8.84691 -2.22245,16.20034 -7.09763,23.48392 -1.99033,2.97358 -4.5645,5.97274 -6.55309,7.635 l -1.40339,1.17308 2.10376,-3.21081 c 8.17385,-12.47519 10.48352,-27.76494 6.37297,-42.18829 -1.25882,-4.41701 -2.51088,-6.61947 -5.419,-9.53243 C 465.09813,170.67967 460.22697,168.64 454.4,168.64 c -8.7921,0 -15.58592,4.69546 -20.12683,13.91039 -2.77439,5.63012 -3.87202,10.35981 -3.87273,16.68769 -7.3e-4,6.47434 1.36594,12.09502 4.26684,17.54814 2.41778,4.54496 4.63115,7.30399 8.68242,10.82291 l 2.2297,1.9367 -4.12184,-0.2089 c -18.17439,-0.92113 -61.03017,-1.04578 -81.61756,-0.2374 -25.78303,1.01239 -46.15075,2.33189 -67.2,4.3535 -9.77528,0.93884 -19.95005,1.9852 -21.76,2.23779 l -1.17659,0.33375 z"
       id="path25"
       sodipodi:nodetypes="ssssccsssscssssssssssssssssscsscssssscsssccs" />
  </g>
</svg>
